<svg xmlns="http://www.w3.org/2000/svg" width="120" height="20" fill="none">
  <g fill="#fff" fill-rule="evenodd">
    <!-- Document icon -->
    <path d="M2 2h10l4 4v12H2V2zm10 0v4h4l-4-4z" fill="#fff" opacity=".9"/>
    <path d="M5 8h8M5 11h8M5 14h5" stroke="#fff" stroke-width="1.2" stroke-linecap="round" fill="none"/>
    <!-- M -->
    <path d="M22 6h1.5l2.5 5 2.5-5H30v8h-1.5V9.5L26 14h-1l-2.5-4.5V14H21V6z"/>
    <!-- i -->
    <path d="M33 6h1.5v8H33V6zm0-2.5h1.5v1.5H33z"/>
    <!-- a -->
    <path d="M37 10c0-1.5.8-2.5 2-2.5s1.8.8 1.9 2H39.5c-.1-.6-.4-1-.8-1-.5 0-.8.5-.8 1.2V14h-1.5v-5.5h1.5v.8c.2-.5.6-1 1.2-1 1 0 1.6.8 1.6 2V14h-1.5v-4z"/>
    <!-- o -->
    <path d="M44 10c0-2.3 1.5-4 3.5-4s3.5 1.7 3.5 4-1.5 4-3.5 4-3.5-1.7-3.5-4zm5.5 0c0-1.5-.8-2.5-2-2.5s-2 1-2 2.5.8 2.5 2 2.5 2-1 2-2.5z"/>
    <!-- t -->
    <path d="M53 4h1.5v3h3v1.5h-3V14h-1.5V8.5h-1.5V7h1.5V4z"/>
    <!-- o -->
    <path d="M59 10c0-2.3 1.5-4 3.5-4s3.5 1.7 3.5 4-1.5 4-3.5 4-3.5-1.7-3.5-4zm5.5 0c0-1.5-.8-2.5-2-2.5s-2 1-2 2.5.8 2.5 2 2.5 2-1 2-2.5z"/>
    <!-- n -->
    <path d="M68 6h1.5v1.3c.3-.5.8-1.5 1.8-1.5 1.2 0 1.9.8 1.9 2V14h-1.5V9c0-.8-.4-1.3-1-1.3-.7 0-1.2.6-1.2 1.5V14H68V6z"/>
    <!-- g -->
    <path d="M77 10c0-2.3 1.5-4 3.5-4s3.5 1.7 3.5 4v.5h-5.5c0 1.5.8 2.5 2 2.5.7 0 1.2-.3 1.5-.7h1.6c-.5 1.2-1.5 2.2-3.1 2.2-2.3 0-3.5-1.7-3.5-4zm5.5-.5h-4c0-1.5.8-2.5 2-2.5s2 1 2 2.5z"/>
    <!-- D -->
    <path d="M88 6h3c2 0 3.5 1.5 3.5 4s-1.5 4-3.5 4h-3V6zm1.5 6.5h1.5c1.2 0 2-1 2-2.5s-.8-2.5-2-2.5H89.5v5z"/>
    <!-- o -->
    <path d="M97 10c0-2.3 1.5-4 3.5-4s3.5 1.7 3.5 4-1.5 4-3.5 4-3.5-1.7-3.5-4zm5.5 0c0-1.5-.8-2.5-2-2.5s-2 1-2 2.5.8 2.5 2 2.5 2-1 2-2.5z"/>
    <!-- c -->
    <path d="M108 10c0-2.3 1.3-4 3-4 .8 0 1.5.4 1.8 1h1.7c-.4-1.3-1.5-2.5-3.5-2.5-2.5 0-4.5 2-4.5 4.5s2 4.5 4.5 4.5c2 0 3.1-1.2 3.5-2.5h-1.7c-.3.6-1 1-1.8 1-1.7 0-3-1.7-3-4z"/>
  </g>
</svg>